<svg xmlns="http://www.w3.org/2000/svg" viewBox="0 0 500 500"><g id="freepik--Envelope--inject-204"><path d="M216.79,115.85,212.24,114l-.46-.19-.05,0h0a5.94,5.94,0,0,0-5,.45L50.59,204.38A21.55,21.55,0,0,0,39.8,223.06V359a8.23,8.23,0,0,0,12.35,7.12l156.29-90.23a14.67,14.67,0,0,0,7.33-12.71V119.5a6,6,0,0,0-.76-2.94Z" style="fill:#BA68C8"></path><path d="M216.79,115.85,212.24,114l-.46-.19-.05,0h0a5.94,5.94,0,0,0-5,.45L50.59,204.38A21.55,21.55,0,0,0,39.8,223.06V359a8.23,8.23,0,0,0,12.35,7.12l156.29-90.23a14.67,14.67,0,0,0,7.33-12.71V119.5a6,6,0,0,0-.76-2.94Z" style="opacity:0.30000000000000004"></path><path d="M219.91,121.14V264.87a14.64,14.64,0,0,1-7.34,12.7L56.28,367.81a8.24,8.24,0,0,1-12.35-7.13v-136a21.53,21.53,0,0,1,2.81-10.63l0,0a15.54,15.54,0,0,1,5.83-5.75L214,115.09a6.08,6.08,0,0,1,5.89,6Z" style="fill:#BA68C8"></path><path d="M219.91,121.14V264.87a14.64,14.64,0,0,1-7.34,12.7L56.28,367.81a8.24,8.24,0,0,1-12.35-7.13v-136a21.53,21.53,0,0,1,2.81-10.63l0,0a15.54,15.54,0,0,1,5.83-5.75L214,115.09a6.08,6.08,0,0,1,5.89,6Z" style="opacity:0.1"></path><path d="M212.57,277.57,56.28,367.81a8.15,8.15,0,0,1-8,.13L141.6,227.49l78.31,37.37A14.67,14.67,0,0,1,212.57,277.57Z" style="fill:#BA68C8"></path><path d="M212.57,277.57,56.28,367.81a8.15,8.15,0,0,1-8,.13L141.6,227.49l78.31,37.37A14.67,14.67,0,0,1,212.57,277.57Z" style="opacity:0.2"></path><path d="M217.28,116.16,153.55,249.47A21.1,21.1,0,0,1,124,258.64L46.74,214.08h0a15,15,0,0,1,5.57-5.63L214,115.09A6,6,0,0,1,217.28,116.16Z" style="fill:#BA68C8"></path></g><g id="freepik--speech-bubble--inject-204"><circle cx="343.02" cy="106.13" r="21.03" style="fill:#BA68C8"></circle><path d="M339.27,122.48s1.88,6.68-5.73,12.88c0,0,11.72-1.18,12.36-12.32Z" style="fill:#BA68C8"></path><path d="M345.09,108.07h-4.52l-1.13-10.85h6.78Zm-2.26,7a3.1,3.1,0,0,1-3.31-3,3.33,3.33,0,0,1,6.62,0A3.1,3.1,0,0,1,342.83,115.05Z" style="fill:#fff"></path></g></svg>